<svg width="18" height="21" viewBox="0 0 18 21" fill="none" xmlns="http://www.w3.org/2000/svg">
<path d="M15.875 0.5H2.125C1.125 0.5 0.25 1.375 0.25 2.375V18.625C0.25 19.625 1.125 20.5 2.125 20.5H15.875C16.875 20.5 17.75 19.625 17.75 18.625V2.375C17.75 1.375 16.875 0.5 15.875 0.5ZM5.25 17.5C5.25 17.75 5 18 4.75 18H3.25C3 18 2.75 17.75 2.75 17.5V16C2.75 15.75 3 15.5 3.25 15.5H4.75C5 15.5 5.25 15.75 5.25 16V17.5ZM5.25 12.5C5.25 12.75 5 13 4.75 13H3.25C3 13 2.75 12.75 2.75 12.5V11C2.75 10.75 3 10.5 3.25 10.5H4.75C5 10.5 5.25 10.75 5.25 11V12.5ZM10.25 17.5C10.25 17.75 10 18 9.75 18H8.25C8 18 7.75 17.75 7.75 17.5V16C7.75 15.75 8 15.5 8.25 15.5H9.75C10 15.5 10.25 15.75 10.25 16V17.5ZM10.25 12.5C10.25 12.75 10 13 9.75 13H8.25C8 13 7.75 12.75 7.75 12.5V11C7.75 10.75 8 10.5 8.25 10.5H9.75C10 10.5 10.25 10.75 10.25 11V12.5ZM15.25 17.5C15.25 17.75 15 18 14.75 18H13.25C13 18 12.75 17.75 12.75 17.5V11C12.75 10.75 13 10.5 13.25 10.5H14.75C15 10.5 15.25 10.75 15.25 11V17.5ZM15.25 7.5C15.25 7.75 15 8 14.75 8H3.25C3 8 2.75 7.75 2.75 7.5V3.5C2.75 3.25 3 3 3.25 3H14.75C15 3 15.25 3.25 15.25 3.5V7.5Z" fill="white"/>
</svg>
