<svg width="18" height="18" viewBox="0 0 18 18" fill="none" xmlns="http://www.w3.org/2000/svg">
<g clip-path="url(#clip0_619_2874)">
<path d="M11.0859 3.15625C11.987 3.39808 12.8087 3.87268 13.4684 4.53239C14.1281 5.19211 14.6027 6.01375 14.8445 6.91484" stroke="white" stroke-width="1.5" stroke-linecap="round" stroke-linejoin="round"/>
<path d="M10.5332 5.20801C11.0752 5.35194 11.5694 5.63658 11.9659 6.03309C12.3624 6.42959 12.6471 6.92387 12.791 7.46582" stroke="white" stroke-width="1.5" stroke-linecap="round" stroke-linejoin="round"/>
<path d="M6.64258 8.78767C7.18925 9.91659 8.10211 10.8271 9.23242 11.3709C9.3158 11.4104 9.40802 11.4274 9.50001 11.4205C9.59199 11.4135 9.68057 11.3827 9.75703 11.331L11.4172 10.222C11.4905 10.1723 11.5753 10.1419 11.6635 10.1338C11.7518 10.1257 11.8407 10.1401 11.9219 10.1756L15.0297 11.5103C15.1359 11.5545 15.2246 11.6324 15.2822 11.732C15.3398 11.8316 15.3631 11.9474 15.3484 12.0615C15.2499 12.8303 14.8747 13.5369 14.2929 14.049C13.7111 14.5612 12.9626 14.8437 12.1875 14.8439C9.79226 14.8439 7.49513 13.8924 5.80144 12.1987C4.10775 10.505 3.15625 8.20791 3.15625 5.81267C3.15642 5.03758 3.43902 4.2891 3.95115 3.7073C4.46328 3.1255 5.16986 2.75024 5.93867 2.65174C6.05278 2.63708 6.16855 2.66034 6.26814 2.71794C6.36774 2.77553 6.44564 2.86427 6.48984 2.97049L7.82461 6.08494C7.85932 6.16486 7.87384 6.25209 7.86689 6.33894C7.85994 6.42579 7.83174 6.5096 7.78477 6.58299L6.67578 8.26971C6.62641 8.34599 6.59743 8.43367 6.59162 8.52436C6.5858 8.61504 6.60335 8.70571 6.64258 8.78767Z" stroke="white" stroke-width="1.5" stroke-linecap="round" stroke-linejoin="round"/>
</g>
<defs>
<clipPath id="clip0_619_2874">
<rect width="17" height="17" fill="white" transform="translate(0.5 0.5)"/>
</clipPath>
</defs>
</svg>
