<svg width="28" height="20" viewBox="0 0 28 20" fill="none" xmlns="http://www.w3.org/2000/svg">
<path d="M9.87976 15.9H25.6398C26.3498 15.9 26.9298 15.32 26.9298 14.61V10.39C26.9298 9.81996 26.7898 9.25996 26.5298 8.74996L24.0998 4.00996C23.8798 3.57996 23.4298 3.30996 22.9498 3.30996H16.5198V2.74996C16.5198 2.03996 15.9398 1.45996 15.2298 1.45996H2.29976C1.58976 1.45996 1.00977 2.03996 1.00977 2.74996V14.61C1.00977 15.32 1.58976 15.9 2.29976 15.9H9.88976H9.87976Z" stroke="#ED9121" stroke-miterlimit="10"/>
<path d="M24.31 8.00018L23.04 5.52017C22.85 5.16017 22.48 4.93018 22.08 4.93018H19.33C18.73 4.93018 18.25 5.42018 18.25 6.01018V8.49017C18.25 9.09017 18.74 9.57018 19.33 9.57018H23.36C24.17 9.57018 24.69 8.71017 24.32 7.99017L24.31 8.00018Z" stroke="#ED9121" stroke-miterlimit="10"/>
<path d="M16.5195 3.31006V15.9001" stroke="#ED9121" stroke-miterlimit="10"/>
<path d="M24.0694 15.8999C24.0694 14.3899 22.8494 13.1699 21.3394 13.1699C19.8294 13.1699 18.6094 14.3899 18.6094 15.8999C18.6094 17.4099 19.8294 18.6299 21.3394 18.6299C22.8494 18.6299 24.0694 17.4099 24.0694 15.8999Z" fill="white" stroke="#ED9121" stroke-miterlimit="10"/>
<path d="M21.3501 16.9199C21.9134 16.9199 22.3701 16.4632 22.3701 15.8999C22.3701 15.3366 21.9134 14.8799 21.3501 14.8799C20.7867 14.8799 20.3301 15.3366 20.3301 15.8999C20.3301 16.4632 20.7867 16.9199 21.3501 16.9199Z" stroke="#ED9121" stroke-miterlimit="10"/>
<path d="M10.4307 15.8999C10.4307 14.3899 9.2107 13.1699 7.7007 13.1699C6.1907 13.1699 4.9707 14.3899 4.9707 15.8999C4.9707 17.4099 6.1907 18.6299 7.7007 18.6299C9.2107 18.6299 10.4307 17.4099 10.4307 15.8999Z" fill="white" stroke="#ED9121" stroke-miterlimit="10"/>
<path d="M7.70946 16.9199C8.27279 16.9199 8.72945 16.4632 8.72945 15.8999C8.72945 15.3366 8.27279 14.8799 7.70946 14.8799C7.14613 14.8799 6.68945 15.3366 6.68945 15.8999C6.68945 16.4632 7.14613 16.9199 7.70946 16.9199Z" stroke="#ED9121" stroke-miterlimit="10"/>
<path d="M1 13.1602H16.52" stroke="#ED9121" stroke-miterlimit="10"/>
<path d="M25.6705 11.74H26.9205V13.46H25.6705C25.1905 13.46 24.8105 13.07 24.8105 12.6C24.8105 12.12 25.2005 11.74 25.6705 11.74Z" stroke="#ED9121" stroke-miterlimit="10"/>
</svg>
