<svg width="24" height="25" viewBox="0 0 24 25" fill="none" xmlns="http://www.w3.org/2000/svg">
<path d="M11.9595 14.4594C9.34182 14.4594 7.72852 11.3515 7.72852 7.87181V3.88601C7.72852 3.0161 8.83568 1.06274 11.9595 1.06274" stroke="#ED9121" stroke-miterlimit="10"/>
<path d="M7.75977 8.73382C7.75977 8.73382 8.82739 6.7251 11.9591 6.7251" stroke="#ED9121" stroke-miterlimit="10"/>
<path d="M7.75977 6.73299C7.75977 6.73299 9.13581 5.68909 11.9591 5.68909" stroke="#ED9121" stroke-miterlimit="10"/>
<path d="M10.4818 1.22876C10.3316 1.85352 10.205 2.55736 10.1101 3.32446C9.99941 4.25765 9.95986 5.11966 9.96777 5.87885" stroke="#ED9121" stroke-miterlimit="10"/>
<path d="M9.12085 12.8699C9.25529 13.1546 9.34228 14.0008 8.97059 14.9418C8.44864 16.2467 6.06824 16.6105 4.68428 16.824C2.15362 17.2274 1.45769 18.7774 1.17299 19.8371C0.91992 20.7861 0.904105 22.2808 0.92783 23.2772C0.943647 23.8466 1.40232 24.2974 1.97172 24.2974H11.952" stroke="#ED9121" stroke-miterlimit="10"/>
<path d="M8.51953 15.6456C8.85168 15.8829 9.31036 16.1518 9.90349 16.3653C10.7339 16.6658 11.4219 16.7212 11.9597 16.7212" stroke="#ED9121" stroke-miterlimit="10"/>
<path d="M3.91797 24.2974V20.5014C3.91797 20.3274 4.06031 20.1851 4.2343 20.1851H11.9607" stroke="#ED9121" stroke-miterlimit="10"/>
<path d="M5.28516 16.8241V20.193" stroke="#ED9121" stroke-miterlimit="10"/>
<path d="M7.29492 20.193V16.2863" stroke="#ED9121" stroke-miterlimit="10"/>
<path d="M8.07737 10.6002C8.07737 10.6002 7.00184 10.3313 6.7725 8.94738C6.64597 8.16445 7.01766 7.61877 7.7215 7.61877" stroke="#ED9121" stroke-miterlimit="10"/>
<path d="M5.7275 21.4425H5.7196C5.41386 21.4425 5.16602 21.6904 5.16602 21.9961V22.004C5.16602 22.3097 5.41386 22.5576 5.7196 22.5576H5.7275C6.03323 22.5576 6.28108 22.3097 6.28108 22.004V21.9961C6.28108 21.6904 6.03323 21.4425 5.7275 21.4425Z" stroke="#ED9121" stroke-miterlimit="10"/>
<path d="M11.959 14.4594C14.5766 14.4594 16.1899 11.3515 16.1899 7.87181C16.1899 7.87181 16.1899 4.6373 16.1899 3.88601C16.1899 3.13472 15.0828 1.06274 11.959 1.06274" stroke="#ED9121" stroke-miterlimit="10"/>
<path d="M16.1583 8.73382C16.1583 8.73382 15.0907 6.7251 11.959 6.7251" stroke="#ED9121" stroke-miterlimit="10"/>
<path d="M16.1583 6.73299C16.1583 6.73299 14.7823 5.68909 11.959 5.68909" stroke="#ED9121" stroke-miterlimit="10"/>
<path d="M13.4316 1.22876C13.5819 1.85352 13.7084 2.55736 13.8033 3.32446C13.914 4.25765 13.9536 5.11966 13.9457 5.87885" stroke="#ED9121" stroke-miterlimit="10"/>
<path d="M14.7999 12.8699C14.6655 13.1546 14.5785 14.0008 14.9502 14.9418C15.4721 16.2467 17.8525 16.6105 19.2365 16.824C21.7672 17.2274 22.4631 18.7774 22.7478 19.8371C23.0009 20.7861 23.0167 22.2808 22.9929 23.2772C22.9771 23.8466 22.5185 24.2974 21.9491 24.2974H11.9688" stroke="#ED9121" stroke-miterlimit="10"/>
<path d="M15.3913 15.6456C15.0591 15.8829 14.6005 16.1518 14.0073 16.3653C13.177 16.6658 12.4889 16.7212 11.9512 16.7212" stroke="#ED9121" stroke-miterlimit="10"/>
<path d="M19.9939 24.2974V20.5014C19.9939 20.3274 19.8516 20.1851 19.6776 20.1851H11.9512" stroke="#ED9121" stroke-miterlimit="10"/>
<path d="M18.6348 16.8241V20.193" stroke="#ED9121" stroke-miterlimit="10"/>
<path d="M16.625 20.193V16.2863" stroke="#ED9121" stroke-miterlimit="10"/>
<path d="M15.8438 10.6002C15.8438 10.6002 16.9193 10.3313 17.1486 8.94738C17.2752 8.16445 16.9035 7.61877 16.1996 7.61877" stroke="#ED9121" stroke-miterlimit="10"/>
<path d="M18.1846 22.5497H18.1925C18.4982 22.5497 18.7461 22.3018 18.7461 21.9961V21.9882C18.7461 21.6825 18.4982 21.4346 18.1925 21.4346H18.1846C17.8789 21.4346 17.631 21.6825 17.631 21.9882V21.9961C17.631 22.3018 17.8789 22.5497 18.1846 22.5497Z" stroke="#ED9121" stroke-miterlimit="10"/>
</svg>
