<svg width="25" height="25" viewBox="0 0 25 25" fill="none" xmlns="http://www.w3.org/2000/svg">
<g clip-path="url(#clip0_619_2531)">
<path d="M20.8333 2.08333H19.7917V1.04167C19.7917 0.765399 19.6819 0.500448 19.4866 0.305097C19.2912 0.109747 19.0263 0 18.75 0C18.4737 0 18.2088 0.109747 18.0134 0.305097C17.8181 0.500448 17.7083 0.765399 17.7083 1.04167V2.08333H7.29167V1.04167C7.29167 0.765399 7.18192 0.500448 6.98657 0.305097C6.79122 0.109747 6.52627 0 6.25 0C5.97373 0 5.70878 0.109747 5.51343 0.305097C5.31808 0.500448 5.20833 0.765399 5.20833 1.04167V2.08333H4.16667C3.0616 2.08333 2.00179 2.52232 1.22039 3.30372C0.438987 4.08512 0 5.14493 0 6.25L0 20.8333C0 21.9384 0.438987 22.9982 1.22039 23.7796C2.00179 24.561 3.0616 25 4.16667 25H20.8333C21.9384 25 22.9982 24.561 23.7796 23.7796C24.561 22.9982 25 21.9384 25 20.8333V6.25C25 5.14493 24.561 4.08512 23.7796 3.30372C22.9982 2.52232 21.9384 2.08333 20.8333 2.08333ZM22.9167 20.8333C22.9167 21.3859 22.6972 21.9158 22.3065 22.3065C21.9158 22.6972 21.3859 22.9167 20.8333 22.9167H4.16667C3.61413 22.9167 3.08423 22.6972 2.69353 22.3065C2.30283 21.9158 2.08333 21.3859 2.08333 20.8333V6.25C2.08333 5.69747 2.30283 5.16756 2.69353 4.77686C3.08423 4.38616 3.61413 4.16667 4.16667 4.16667H5.20833V5.20833C5.20833 5.4846 5.31808 5.74955 5.51343 5.9449C5.70878 6.14025 5.97373 6.25 6.25 6.25C6.52627 6.25 6.79122 6.14025 6.98657 5.9449C7.18192 5.74955 7.29167 5.4846 7.29167 5.20833V4.16667H17.7083V5.20833C17.7083 5.4846 17.8181 5.74955 18.0134 5.9449C18.2088 6.14025 18.4737 6.25 18.75 6.25C19.0263 6.25 19.2912 6.14025 19.4866 5.9449C19.6819 5.74955 19.7917 5.4846 19.7917 5.20833V4.16667H20.8333C21.3859 4.16667 21.9158 4.38616 22.3065 4.77686C22.6972 5.16756 22.9167 5.69747 22.9167 6.25V20.8333Z" fill="#ED9121"/>
<path d="M19.791 7.29163H5.20768C4.93142 7.29163 4.66646 7.40137 4.47111 7.59672C4.27576 7.79207 4.16602 8.05703 4.16602 8.33329C4.16602 8.60956 4.27576 8.87451 4.47111 9.06986C4.66646 9.26521 4.93142 9.37496 5.20768 9.37496H19.791C20.0673 9.37496 20.3322 9.26521 20.5276 9.06986C20.7229 8.87451 20.8327 8.60956 20.8327 8.33329C20.8327 8.05703 20.7229 7.79207 20.5276 7.59672C20.3322 7.40137 20.0673 7.29163 19.791 7.29163Z" fill="#ED9121"/>
<path d="M7.29102 12.5H5.20768C4.93142 12.5 4.66646 12.6097 4.47111 12.8051C4.27576 13.0004 4.16602 13.2654 4.16602 13.5417C4.16602 13.8179 4.27576 14.0829 4.47111 14.2782C4.66646 14.4736 4.93142 14.5833 5.20768 14.5833H7.29102C7.56728 14.5833 7.83223 14.4736 8.02759 14.2782C8.22294 14.0829 8.33268 13.8179 8.33268 13.5417C8.33268 13.2654 8.22294 13.0004 8.02759 12.8051C7.83223 12.6097 7.56728 12.5 7.29102 12.5Z" fill="#ED9121"/>
<path d="M7.29102 17.7084H5.20768C4.93142 17.7084 4.66646 17.8181 4.47111 18.0135C4.27576 18.2088 4.16602 18.4738 4.16602 18.75C4.16602 19.0263 4.27576 19.2913 4.47111 19.4866C4.66646 19.682 4.93142 19.7917 5.20768 19.7917H7.29102C7.56728 19.7917 7.83223 19.682 8.02759 19.4866C8.22294 19.2913 8.33268 19.0263 8.33268 18.75C8.33268 18.4738 8.22294 18.2088 8.02759 18.0135C7.83223 17.8181 7.56728 17.7084 7.29102 17.7084Z" fill="#ED9121"/>
<path d="M13.541 12.5H11.4577C11.1814 12.5 10.9165 12.6097 10.7211 12.8051C10.5258 13.0004 10.416 13.2654 10.416 13.5417C10.416 13.8179 10.5258 14.0829 10.7211 14.2782C10.9165 14.4736 11.1814 14.5833 11.4577 14.5833H13.541C13.8173 14.5833 14.0822 14.4736 14.2776 14.2782C14.4729 14.0829 14.5827 13.8179 14.5827 13.5417C14.5827 13.2654 14.4729 13.0004 14.2776 12.8051C14.0822 12.6097 13.8173 12.5 13.541 12.5Z" fill="#ED9121"/>
<path d="M13.541 17.7084H11.4577C11.1814 17.7084 10.9165 17.8181 10.7211 18.0135C10.5258 18.2088 10.416 18.4738 10.416 18.75C10.416 19.0263 10.5258 19.2913 10.7211 19.4866C10.9165 19.682 11.1814 19.7917 11.4577 19.7917H13.541C13.8173 19.7917 14.0822 19.682 14.2776 19.4866C14.4729 19.2913 14.5827 19.0263 14.5827 18.75C14.5827 18.4738 14.4729 18.2088 14.2776 18.0135C14.0822 17.8181 13.8173 17.7084 13.541 17.7084Z" fill="#ED9121"/>
<path d="M19.791 12.5H17.7077C17.4314 12.5 17.1665 12.6097 16.9711 12.8051C16.7758 13.0004 16.666 13.2654 16.666 13.5417C16.666 13.8179 16.7758 14.0829 16.9711 14.2782C17.1665 14.4736 17.4314 14.5833 17.7077 14.5833H19.791C20.0673 14.5833 20.3322 14.4736 20.5276 14.2782C20.7229 14.0829 20.8327 13.8179 20.8327 13.5417C20.8327 13.2654 20.7229 13.0004 20.5276 12.8051C20.3322 12.6097 20.0673 12.5 19.791 12.5Z" fill="#ED9121"/>
<path d="M19.791 17.7084H17.7077C17.4314 17.7084 17.1665 17.8181 16.9711 18.0135C16.7758 18.2088 16.666 18.4738 16.666 18.75C16.666 19.0263 16.7758 19.2913 16.9711 19.4866C17.1665 19.682 17.4314 19.7917 17.7077 19.7917H19.791C20.0673 19.7917 20.3322 19.682 20.5276 19.4866C20.7229 19.2913 20.8327 19.0263 20.8327 18.75C20.8327 18.4738 20.7229 18.2088 20.5276 18.0135C20.3322 17.8181 20.0673 17.7084 19.791 17.7084Z" fill="#ED9121"/>
</g>
<defs>
<clipPath id="clip0_619_2531">
<rect width="25" height="25" fill="white"/>
</clipPath>
</defs>
</svg>
